<?xml version="1.0" standalone="no"?>
<!DOCTYPE svg PUBLIC "-//W3C//DTD SVG 20010904//EN"
 "http://www.w3.org/TR/2001/REC-SVG-20010904/DTD/svg10.dtd">
<svg version="1.0" xmlns="http://www.w3.org/2000/svg"
 width="500.000000pt" height="350.000000pt" viewBox="0 0 500.000000 350.000000"
 preserveAspectRatio="xMidYMid meet">

<g transform="translate(0.000000,479.000000) scale(0.100000,-0.100000)"
fill="#000000" stroke="none">
<path d="M4223 4196 c-54 -68 -99 -258 -89 -368 15 -142 55 -212 147 -254 26
-11 42 -26 47 -43 13 -46 5 -312 -12 -396 -17 -87 -39 -125 -79 -139 -41 -15
-123 34 -225 133 -113 110 -181 146 -273 145 -54 0 -79 -6 -143 -37 -292 -139
-428 -576 -274 -882 11 -22 54 -89 96 -150 41 -60 89 -139 106 -175 60 -129
34 -261 -74 -369 -60 -60 -119 -88 -215 -102 -87 -13 -87 -23 -3 -54 60 -22
169 -25 234 -7 172 49 258 244 210 473 -16 73 -36 117 -119 257 -70 117 -99
220 -95 329 l3 78 495 0 c272 0 502 4 511 8 22 11 45 64 60 136 14 73 8 409
-12 632 l-13 146 43 38 c83 76 102 152 76 310 -8 55 -22 120 -29 146 -20 65
-58 151 -64 144 -3 -3 -14 -44 -23 -90 -23 -113 -53 -167 -100 -179 -20 -5
-53 -6 -73 -2 -49 9 -62 41 -79 188 l-12 112 -22 -28z"/>

</g>
</svg>
