<?xml version="1.0" standalone="no"?>
<!DOCTYPE svg PUBLIC "-//W3C//DTD SVG 20010904//EN"
 "http://www.w3.org/TR/2001/REC-SVG-20010904/DTD/svg10.dtd">
<svg version="1.0" xmlns="http://www.w3.org/2000/svg"
 width="775.000000pt" height="479.000000pt" viewBox="0 0 775.000000 479.000000"
 preserveAspectRatio="xMidYMid meet">

<g transform="translate(0.000000,479.000000) scale(0.100000,-0.100000)"
fill="#000000" stroke="none">
<path d="M4223 4196 c-54 -68 -99 -258 -89 -368 15 -142 55 -212 147 -254 26
-11 42 -26 47 -43 13 -46 5 -312 -12 -396 -17 -87 -39 -125 -79 -139 -41 -15
-123 34 -225 133 -113 110 -181 146 -273 145 -54 0 -79 -6 -143 -37 -292 -139
-428 -576 -274 -882 11 -22 54 -89 96 -150 41 -60 89 -139 106 -175 60 -129
34 -261 -74 -369 -60 -60 -119 -88 -215 -102 -87 -13 -87 -23 -3 -54 60 -22
169 -25 234 -7 172 49 258 244 210 473 -16 73 -36 117 -119 257 -70 117 -99
220 -95 329 l3 78 495 0 c272 0 502 4 511 8 22 11 45 64 60 136 14 73 8 409
-12 632 l-13 146 43 38 c83 76 102 152 76 310 -8 55 -22 120 -29 146 -20 65
-58 151 -64 144 -3 -3 -14 -44 -23 -90 -23 -113 -53 -167 -100 -179 -20 -5
-53 -6 -73 -2 -49 9 -62 41 -79 188 l-12 112 -22 -28z"/>

<path d="M4110 890 l0 -220 45 0 45 0 0 103 c0 115 12 147 56 147 59 0 64 -10
64 -135 l0 -115 46 0 46 0 -4 131 -3 131 -33 29 c-26 23 -41 29 -80 29 -27 0
-57 -7 -70 -16 l-22 -15 0 75 0 76 -45 0 -45 0 0 -220z"/>
<path d="M5490 890 l0 -220 45 0 45 0 0 220 0 220 -45 0 -45 0 0 -220z"/>
<path d="M4751 1087 c-52 -20 -81 -60 -81 -114 0 -64 43 -106 125 -122 101
-20 130 -34 130 -61 0 -53 -91 -63 -177 -19 -45 23 -49 21 -79 -33 -20 -36
112 -85 205 -75 99 10 146 53 146 134 0 71 -40 103 -161 128 -80 17 -99 28
-99 56 0 41 94 48 162 13 30 -15 31 -15 54 13 13 15 23 31 24 34 0 3 -19 16
-41 29 -50 28 -156 36 -208 17z"/>
<path d="M630 880 l0 -210 45 0 45 0 0 60 0 60 53 0 c75 0 126 17 164 55 30
30 33 38 33 93 0 51 -4 66 -26 92 -44 52 -71 60 -199 60 l-115 0 0 -210z m231
114 c12 -11 19 -30 19 -55 0 -51 -27 -69 -102 -69 l-58 0 0 68 c0 38 3 72 8
76 12 14 113 -2 133 -20z"/>
<path d="M3060 880 l0 -210 45 0 45 0 0 59 0 58 73 5 c128 8 181 57 174 160
-2 44 -9 64 -28 84 -40 44 -78 54 -199 54 l-110 0 0 -210z m232 110 c24 -29
23 -75 -2 -100 -16 -16 -33 -20 -80 -20 l-60 0 0 76 0 77 62 -6 c48 -4 67 -11
80 -27z"/>
<path d="M2660 1035 c0 -38 -3 -45 -20 -45 -16 0 -20 -7 -20 -35 0 -28 4 -35
20 -35 19 0 20 -7 20 -105 0 -99 2 -107 25 -130 19 -20 34 -25 75 -25 l50 0 0
34 c0 29 -4 34 -30 40 l-30 6 0 90 0 90 30 0 c28 0 30 3 30 35 0 32 -2 35 -30
35 -29 0 -30 2 -30 45 l0 45 -45 0 -45 0 0 -45z"/>
<path d="M3890 1035 c0 -33 -4 -45 -15 -45 -10 0 -15 -11 -15 -35 0 -23 5 -35
14 -35 11 0 15 -25 18 -110 4 -131 11 -141 92 -148 l56 -4 0 36 c0 28 -4 36
-18 36 -34 0 -42 21 -42 107 l0 83 30 0 c28 0 30 3 30 35 0 32 -2 35 -30 35
-29 0 -30 2 -30 45 l0 45 -45 0 -45 0 0 -45z"/>
<path d="M6070 1035 c0 -38 -3 -45 -20 -45 -16 0 -20 -7 -20 -35 0 -28 4 -35
20 -35 19 0 20 -7 20 -105 0 -99 2 -107 25 -130 19 -20 34 -25 75 -25 l50 0 0
35 c0 27 -4 35 -18 35 -34 0 -42 21 -42 107 l0 83 30 0 c28 0 30 3 30 35 0 32
-2 35 -30 35 -29 0 -30 2 -30 45 l0 45 -45 0 -45 0 0 -45z"/>
<path d="M1030 830 l0 -160 39 0 39 0 4 94 c3 106 16 131 74 142 32 6 34 9 34
45 0 34 -3 39 -22 39 -13 0 -38 -9 -55 -20 -33 -20 -33 -20 -33 0 0 17 -7 20
-40 20 l-40 0 0 -160z"/>
<path d="M1338 970 c-51 -27 -82 -82 -82 -145 0 -170 241 -226 322 -74 44 82
12 183 -71 223 -47 22 -123 20 -169 -4z m125 -61 c85 -39 54 -171 -39 -171
-79 0 -113 94 -55 153 31 31 55 36 94 18z"/>
<path d="M1688 815 c-3 -188 -7 -200 -55 -192 -21 4 -23 0 -23 -34 0 -39 0
-39 40 -39 52 0 98 24 110 56 6 14 10 106 10 205 l0 179 -39 0 -40 0 -3 -175z"/>
<path d="M1933 971 c-59 -27 -83 -70 -83 -146 0 -42 6 -69 19 -89 53 -81 188
-101 261 -40 38 32 38 40 -1 59 -27 14 -33 15 -47 2 -25 -21 -58 -26 -97 -16
-34 10 -61 40 -48 53 3 3 62 6 131 6 l125 0 -7 42 c-9 52 -32 94 -68 121 -40
30 -130 34 -185 8z m131 -72 c47 -37 35 -49 -48 -49 -78 0 -94 7 -73 32 32 41
82 48 121 17z"/>
<path d="M2330 970 c-164 -99 -69 -335 124 -306 32 5 56 17 81 40 19 18 35 38
35 43 0 5 -16 15 -35 21 -30 12 -36 11 -55 -8 -13 -13 -33 -20 -60 -20 -85 0
-121 90 -61 151 16 16 39 29 51 29 25 0 77 -25 82 -40 2 -7 16 -6 41 5 21 9
37 21 35 27 -3 7 -21 25 -42 42 -50 41 -142 48 -196 16z"/>
<path d="M3512 970 c-69 -42 -93 -173 -45 -238 48 -65 131 -89 194 -58 21 11
35 13 37 6 2 -5 21 -10 43 -10 l39 0 0 160 0 160 -40 0 c-29 0 -40 -4 -40 -15
0 -14 -3 -14 -30 0 -42 22 -118 19 -158 -5z m163 -75 c32 -31 34 -91 4 -129
-16 -21 -29 -26 -63 -26 -46 0 -78 25 -89 69 -7 30 15 85 40 100 33 19 82 13
108 -14z"/>
<path d="M5156 967 c-57 -32 -91 -100 -81 -164 10 -66 73 -128 140 -139 154
-23 262 141 171 260 -51 67 -154 87 -230 43z m127 -59 c34 -17 46 -39 47 -80
0 -54 -34 -90 -85 -90 -82 0 -118 103 -54 156 33 28 59 32 92 14z"/>
<path d="M5670 860 c0 -127 0 -130 28 -160 34 -40 95 -50 143 -26 21 11 35 13
37 6 2 -5 21 -10 43 -10 l39 0 0 160 0 160 -39 0 -39 0 -4 -111 c-3 -102 -5
-112 -27 -130 -30 -24 -56 -24 -81 1 -18 18 -20 33 -20 130 l0 110 -40 0 -40
0 0 -130z"/>
<path d="M6297 983 c-4 -3 -7 -75 -7 -160 l0 -153 45 0 45 0 0 160 0 160 -38
0 c-21 0 -42 -3 -45 -7z"/>
<path d="M6537 967 c-139 -84 -92 -284 71 -304 146 -17 246 146 159 260 -52
68 -157 88 -230 44z m132 -62 c52 -26 61 -103 17 -143 -56 -53 -146 -14 -146
63 0 27 8 44 29 66 33 32 58 36 100 14z"/>
<path d="M6877 983 c-4 -3 -7 -75 -7 -160 l0 -153 45 0 45 0 0 103 c0 120 12
147 64 147 51 0 56 -12 56 -137 l0 -113 45 0 45 0 0 116 c0 129 -13 173 -56
193 -36 16 -106 14 -132 -5 -20 -14 -22 -14 -22 0 0 12 -10 16 -38 16 -21 0
-42 -3 -45 -7z"/>
</g>
</svg>
